<svg xmlns="http://www.w3.org/2000/svg" xmlns:xlink="http://www.w3.org/1999/xlink" version="1.1" id="Layer_1" x="0px" y="0px" viewBox="0 0 310 310" style="enable-background:new 0 0 310 310;" xml:space="preserve" width="512px" height="512px">
<g id="XMLID_834_">
	<path id="XMLID_835_" d="M10.09,8a1.94,1.94,0,0,1,1.28.28l13,7.39L21.08,19Zm-1,1A2.31,2.31,0,0,0,9,9.67V30.33a2.31,2.31,0,0,0,.09.67l11-11Zm12,12-11,11a1.88,1.88,0,0,0,1.28-.28l13-7.39Zm8.52-2.34-3.94-2.24L22.07,20l3.59,3.59,3.94-2.24C30.9,20.61,30.9,19.39,29.6,18.65Z" fill="#FFFFFF"/>
</g>
<g>
</g>
<g>
</g>
<g>
</g>
<g>
</g>
<g>
</g>
<g>
</g>
<g>
</g>
<g>
</g>
<g>
</g>
<g>
</g>
<g>
</g>
<g>
</g>
<g>
</g>
<g>
</g>
<g>
</g>
</svg>
